<?xml version="1.0" encoding="utf-8"?>
<!-- Generator: Adobe Illustrator 19.0.0, SVG Export Plug-In . SVG Version: 6.00 Build 0)  -->
<svg version="1.1" id="Capa_1" xmlns="http://www.w3.org/2000/svg" xmlns:xlink="http://www.w3.org/1999/xlink" x="0px" y="0px"
	 viewBox="0 0 161 43" style="enable-background:new 0 0 161 43;" xml:space="preserve">
<style type="text/css">
	.st0{fill:#2B4476;}
</style>
<g id="XMLID_1_">
	<g>
		<path class="st0" d="M34,12.5c-0.6-5.8-4.2-9.1-12.8-9.1H4v6h2.2v25H4v6h15.3v-6h-2.5v-7.6h4.3c9.6,0,13-4.1,13-11.1v-1.4
			C34.1,13.8,34.1,13.1,34,12.5L34,12.5z M23.9,16.3c0,2.1-0.7,3.6-2.2,4.2c-0.6,0.2-1.3,0.3-2.2,0.3h-2.7V9.6h2.7
			c2.6,0,3.9,1.1,4.3,3h0c0,0.1,0,0.3,0.1,0.4c0,0.4,0.1,0.7,0.1,1.1V16.3z M63.7,10.7H52.1v6.3h2.1v15.5c-1,0.7-2.4,1.2-3.7,1.2
			c-2,0-2.8-0.9-2.8-3V10.7H36.1v6.3h2v16.2c0,4.9,2.1,7.7,7.8,7.7c3.9,0,6.2-1.3,8.3-3.2h0.3v2.6h11.4v-6h-2.1V10.7z M140.9,33v-14
			c0-6.4-3.7-8.9-10.8-8.9c-5,0-8.7,1-11.5,2v6.2c2-0.4,4.3-0.7,7.1-0.7c4.2,0,5.6,0.7,5.6,2.9v1.9l-6.1,1c-4.9,0.8-8.9,2.7-8.9,8.1
			v1.4c0,5.7,3,8,8.2,8c3.4,0,6.3-1.2,7.7-3.8h0.2c0.4,2.2,2,3.6,6,3.6c2.4,0,3.6-0.3,4.6-0.6v-5.7h-0.9
			C141.3,34.5,140.9,34.1,140.9,33z M131.4,34c-0.7,0.7-1.8,1.2-3,1.2c-1.7,0-2.8-0.9-2.8-2.6v-1.8c0-2.4,1.3-3.1,3.3-3.3l2.5-0.2
			V34z M95.2,16.9c0-4.7-3.2-6.8-7.4-6.8c-4.2,0-6.8,1.6-8.8,3.8h-0.2v-3.1H67.5v6.3h2.1v17.4h-2.1v6h13v-6h-1.4V18.6
			c1.2-0.7,2.6-1.2,3.8-1.2c1.9,0,2.7,0.6,2.7,2.8v14.3h-1.4v6h12.9v-6h-2V16.9z M156.5,34.5V1.4h-11.6v6h2.1v27.1h-2.1v6h13.8v-6
			H156.5z M110.1,4.6h-9.5v6.1h-2.5v6.3h2.5v16.4c0,5.6,2.9,7.5,7.9,7.5c2.3,0,4.7-0.3,5.9-0.7v-5.8h-2.1c-1.5,0-2.2-0.7-2.2-2.5
			V17.1h4.3v-6.3h-4.3V4.6z"/>
	</g>
</g>
</svg>
